<svg width="25" height="25" viewBox="0 0 25 25" fill="none" xmlns="http://www.w3.org/2000/svg">
  <path d="M21.052 5.29165H16.4896V2.85416C16.4896 2.42707 16.1458 2.07291 15.7083 2.07291H9.29163C8.86455 2.07291 8.51038 2.42707 8.51038 2.85416V5.29165H3.94788C3.52079 5.29165 3.16663 5.6354 3.16663 6.0729C3.16663 6.49999 3.52079 6.85415 3.94788 6.85415H5.1458V19.9896C5.1458 21.6042 6.4583 22.9062 8.07288 22.9062H16.5729C18.1771 22.9062 19.4895 21.6042 19.4895 19.9896V6.85415H21.052C21.4791 6.85415 21.8333 6.49999 21.8333 6.0729C21.8333 5.6354 21.4791 5.29165 21.052 5.29165ZM9.57289 17.8542V10.1562C9.57289 9.72915 9.92705 9.37498 10.3541 9.37498C10.7916 9.37498 11.1354 9.72915 11.1354 10.1562V17.8542C11.1354 18.2812 10.7916 18.6354 10.3541 18.6354C9.92705 18.6354 9.57289 18.2812 9.57289 17.8542ZM15.427 17.8542C15.427 18.2812 15.0729 18.6354 14.6458 18.6354C14.2083 18.6354 13.8645 18.2812 13.8645 17.8542V10.1562C13.8645 9.71873 14.2083 9.37498 14.6458 9.37498C15.0729 9.37498 15.427 9.71873 15.427 10.1562V17.8542ZM10.0729 3.63541H14.9271V5.29165H10.0729V3.63541Z" fill="#4E4C4E" />
</svg>