<svg width="25" height="25" viewBox="0 0 25 25" fill="none" xmlns="http://www.w3.org/2000/svg">
  <g clip-path="url(#clip0_218_5)">
    <path d="M22.9166 12.5V18.875C22.9532 19.9077 22.5792 20.9128 21.8763 21.6703C21.1735 22.4278 20.1992 22.876 19.1666 22.9167H5.83329C4.80169 22.8733 3.82895 22.4243 3.12668 21.6674C2.42441 20.9105 2.04942 19.907 2.08329 18.875V12.5C2.08329 12.2928 2.1656 12.0941 2.31211 11.9476C2.45862 11.8011 2.65734 11.7188 2.86454 11.7188H6.54162C6.59805 12.0906 6.77348 12.4342 7.04162 12.6979L7.69787 13.3646L9.1562 14.8229C9.61454 15.3021 10.0833 15.7813 10.5625 16.25C10.9116 16.663 11.327 17.015 11.7916 17.2917C11.8924 17.3357 11.997 17.3706 12.1041 17.3958C12.4514 17.479 12.8161 17.4498 13.1458 17.3125C13.4473 17.1611 13.7191 16.9564 13.9479 16.7083L14.4062 16.2604L14.6354 16.0208C14.6354 16.0208 14.8333 15.8542 14.8333 15.8229L15.5208 15.125C16 14.6563 16.4687 14.1771 16.9375 13.6979L17.0937 13.5417L17.9166 12.7083C18.1848 12.4446 18.3602 12.101 18.4166 11.7292H22.0937C22.1989 11.7235 22.3041 11.7392 22.4031 11.7753C22.502 11.8114 22.5926 11.8671 22.6695 11.9391C22.7464 12.0111 22.8079 12.0979 22.8504 12.1943C22.8928 12.2907 22.9154 12.3947 22.9166 12.5V12.5Z" fill="#4E4C4E" />
    <path d="M12.5 2.86458V15.625" stroke="#4E4C4E" stroke-width="1.5" stroke-linecap="round" stroke-linejoin="round" />
    <path d="M12.5 15.625L16.6667 11.4583" stroke="#4E4C4E" stroke-width="1.5" stroke-linecap="round" stroke-linejoin="round" />
    <path d="M12.4999 15.625L8.33325 11.4583" stroke="#4E4C4E" stroke-width="1.5" stroke-linecap="round" stroke-linejoin="round" />
  </g>
  <defs>
    <clipPath id="clip0_218_5">
      <rect width="25" height="25" fill="white" />
    </clipPath>
  </defs>
</svg>